<svg width="110" height="60" viewBox="0 0 110 60" fill="none" xmlns="http://www.w3.org/2000/svg">
<path fill-rule="evenodd" clip-rule="evenodd" d="M27.9611 20.8083C28.1913 20.9654 28.3101 20.5764 28.7631 20.1575C30.4934 18.6539 35.2685 18.3772 37.4296 18.2201C42.4275 17.8311 44.6405 17.6366 49.0814 17.659C48.6061 19.7162 47.7818 23.3517 47.3511 25.7829C46.7941 28.9846 46.6307 31.4531 46.2074 34.5202L39.1079 38.6345C38.6698 38.8514 38.5509 39.0309 37.5038 38.6045C36.583 38.2305 35.1349 37.9836 32.7882 38.0061C31.4069 38.021 29.5354 38.2006 28.0502 37.8789C27.6417 37.7892 27.1145 37.7293 26.9214 37.4899C26.6021 37.0635 27.0031 36.4726 27.2259 36.0761C27.3521 35.8592 27.4932 35.6497 27.6417 35.4478C28.0353 34.8867 28.9265 34.4603 28.7186 33.63C27.5823 31.2063 24.9757 35.2308 24.3816 36.0163C23.1488 37.6545 21.9532 39.0758 20.7502 40.729C19.5768 42.3298 18.344 43.9082 17.1633 45.4941C15.381 47.8879 13.6655 50.4088 11.7941 52.7278C11.1034 53.5806 10.5019 54.2164 9.85582 55.0318C9.41024 55.5928 8.38542 56.6476 7.81359 57.0964C6.94472 57.7772 6.30606 58.1661 5.10301 58.615C3.41724 59.3555 2.63005 58.6748 2.03595 57.6949C0.461583 55.1066 1.40472 48.8304 1.79089 46.9079C3.23901 39.4648 6.7962 32.8445 11.898 27.7054L14.0368 25.6108C15.4032 24.3691 19.7996 20.5914 19.7996 18.8036C19.7996 17.2925 18.2772 17.4421 17.0667 17.8086C13.7992 18.7961 11.0143 19.9032 7.99183 21.2946C7.30861 21.6088 5.71939 22.4391 4.95448 22.2596C4.53861 20.0752 10.5019 14.1432 12.0763 12.7817C14.267 10.8891 16.8959 8.91428 19.7625 7.91937C20.2675 7.7548 21.0398 7.53038 21.5893 7.49298C23.0226 7.35833 23.0597 8.06898 23.4608 7.66503C24.2257 5.48072 19.5471 5.42087 13.9106 9.54265C10.8509 11.7868 8.60078 13.9412 6.3729 16.9185C5.32579 18.3098 4.23413 19.6264 3.71429 21.6536C2.80829 25.2443 6.93729 22.9178 11.9277 20.6438C12.7818 20.2548 14.1928 19.7012 15.5295 19.2299C16.6954 18.8185 17.7648 18.4295 18.4332 18.4445C18.5594 18.4445 18.7525 18.4744 18.8787 18.5492C18.9679 18.6614 18.8862 18.7512 18.8268 18.9008C18.0173 20.8083 13.6804 24.5336 12.5219 25.5809C10.2049 27.6755 8.25175 29.9496 6.29121 32.9044C3.36526 37.3179 -0.422143 46.2571 0.0382858 53.416C0.290779 57.3956 1.44185 61.7568 6.15753 59.2733C9.0315 57.7622 11.0812 55.0094 12.9451 52.5183C13.9477 51.1793 14.8388 50.0797 15.834 48.7033C16.7845 47.3867 17.6905 46.1823 18.6337 44.8059C19.3912 43.7063 21.827 40.1306 23.3939 38.2305C23.8395 37.6919 24.2851 37.1608 24.5301 36.9813C24.4484 37.5199 24.545 37.8939 24.6787 38.1707C25.2728 39.4124 27.0773 39.1955 29.5429 38.9636C31.1321 38.814 33.0035 38.5522 35.0012 38.7691C35.8849 38.8589 36.7983 39.0758 37.6969 39.3975C37.8677 39.4648 37.0063 39.9959 36.5681 40.3101C35.9295 40.7664 35.2388 41.2377 34.7858 41.5743C33.3897 42.5991 25.2802 49.2718 30.8573 49.2718C33.0629 49.2718 36.1374 47.1324 37.1028 46.1075C37.7935 45.3744 38.5138 44.4917 39.1005 43.4519C39.754 42.2027 39.6946 41.3649 39.4718 40.3176C39.405 40.0034 39.2861 39.6817 39.5015 39.4872C39.7986 39.2179 40.0882 39.0459 40.6303 38.7242C42.2641 37.7667 44.4251 36.4726 45.3831 35.8741C45.7544 35.6422 46.0812 35.4403 46.1183 35.5525C45.9846 39.2479 45.5613 44.3197 47.3065 47.4091C47.5367 47.8131 47.9972 48.3666 48.3833 48.6584C48.8289 48.995 49.5493 49.197 50.2696 48.9501C51.2202 48.6285 52.3787 47.6635 53.0247 47.0501C55.1932 45.2024 59.5673 38.7691 61.1417 36.5474C61.2902 36.3454 61.409 36.6072 61.4536 36.7045C61.6986 37.1608 62.3818 37.3478 64.8102 35.8143C67.0084 34.3556 68.2412 32.7099 68.1298 33.7721C68.1075 34.0115 68.0778 34.2434 68.0555 34.4678C67.6025 38.7915 68.0927 38.9786 73.4396 36.7194C74.2119 36.3903 74.8803 35.9863 75.5709 35.7096C75.5635 37.086 75.2144 41.5668 75.8977 44.9331C76.4101 47.4839 77.8879 50.2817 80.903 48.3517C84.0072 46.4441 87.2673 41.0507 89.161 38.6045C89.6288 37.9986 89.8591 37.4525 89.9185 37.9163C89.9259 37.9837 89.911 38.1781 89.9185 38.2829C90.1413 40.3625 91.6042 41.4621 93.9212 40.7365C96.4759 39.8687 98.7038 38.051 100.545 36.2856C100.909 35.8966 101.147 35.5824 101.296 35.358C101.585 34.9241 101.37 34.6249 100.969 34.8867C100.865 34.954 100.753 35.0438 100.649 35.156C99.231 36.6671 93.5648 42.1353 91.3146 39.5022C90.9656 39.0983 90.7502 38.4699 90.6685 37.8041C90.6388 37.5797 90.5943 37.3254 90.5943 37.0785C90.5943 36.8242 90.6537 36.5998 90.6982 36.495C90.6982 36.495 90.9953 36.0312 91.1512 35.8218C91.2552 35.6796 91.3963 35.4702 91.5374 35.358C91.8567 35.0962 92.3988 35.0662 92.7999 34.8044C93.3643 34.4454 94.4782 33.5552 94.6787 32.9792C95.0723 31.8795 94.1069 31.1315 92.9113 31.3335C91.2552 31.6102 90.2898 33.989 89.9927 35.9489C89.963 36.1958 89.8888 36.7643 89.8888 36.7643C89.8888 36.7643 89.3912 37.4525 89.1461 37.8191C88.4778 38.814 87.6609 39.8762 87.1782 40.5495C86.1608 41.9783 85.1731 43.4444 84.0369 44.7909C83.4279 45.5166 81.1406 47.7757 79.9747 48.1198C78.9796 48.4115 78.2889 48.1796 77.7468 47.1323C77.1378 45.9579 76.9002 44.9854 76.8037 43.5791C76.3804 37.2506 78.3112 26.314 78.987 23.7856C79.4326 21.8032 79.9301 19.7162 80.4722 17.7189C83.1011 17.689 86.9108 17.6141 90.8096 17.7189C96.4462 17.876 102.209 17.9508 105.202 17.3748C106.204 17.1803 107.712 16.7464 108.818 16.2153C109.256 16.0058 109.687 15.7739 109.903 15.557C109.955 15.5046 110.125 15.0857 109.836 15.1156C109.68 15.1306 109.398 15.2503 109.056 15.37C108.417 15.5944 107.69 15.9535 107.237 16.133C106.137 16.5594 105.343 16.7464 104.066 16.9259C101.385 17.3 99.3053 17.3 96.5501 17.2027C91.3146 17.0307 85.938 17.1279 80.695 16.9409C80.6876 15.6094 84.1928 6.61028 84.8315 4.74762C84.8612 4.65786 86.339 0.895148 85.886 0.311666C85.782 0.184497 85.2473 -0.413949 84.7201 0.491196C84.3933 1.05224 83.9552 2.00227 83.3908 3.21411C81.4674 7.37329 79.5365 13.1782 79.0835 14.9735C78.987 15.3625 78.9127 15.7141 78.9127 15.7141C78.9127 15.7141 78.3632 15.9161 77.8805 16.0956C75.2293 17.1204 75.1699 16.8661 69.6893 17.1578C66.9193 17.2775 52.8317 17.1354 51.2202 16.9484C51.3167 15.1755 54.5174 6.93194 55.4531 4.49328C55.8839 3.37868 56.8864 0.775458 56.374 0.244339C55.817 -0.241895 55.4011 0.162056 55.1487 0.588447C54.807 1.15697 54.5174 1.89006 54.3095 2.38378L51.9479 7.95678C51.1013 10.2159 50.2696 12.5797 49.6235 14.9511C49.5195 15.3326 49.423 15.7141 49.3339 16.1704C49.2745 16.6118 49.1928 16.911 49.1928 16.911C49.1928 16.911 48.918 16.9185 48.4205 16.9334C44.3434 16.9334 40.608 17.0905 36.583 17.472C34.8972 17.6366 30.5231 18.0106 28.6666 19.1701C27.9834 19.5965 27.5229 20.1351 27.9611 20.8083ZM69.2734 31.5055C68.1818 31.685 67.4243 33.7422 66.5703 33.3532C66.0133 33.1961 65.7088 32.6874 64.9513 32.5603C62.4487 32.1937 61.2011 35.2383 61.2605 35.5674L55.3492 43.8559C54.5026 44.9555 51.9034 47.8131 50.3364 48.1497C44.9004 49.3241 48.4205 29.0369 49.2373 25.2069C49.7943 22.5962 50.4033 20.18 51.0568 17.689L63.0948 17.7488C62.018 17.8909 60.2802 18.3024 59.3519 18.6465C58.743 18.8709 58.3123 19.1252 57.9781 19.3272C56.9087 19.978 57.3914 20.9355 57.6662 20.8457C57.8221 20.8308 57.6439 20.3296 59.196 19.604C62.4338 18.0181 75.1402 17.7189 78.5266 17.6964C78.2815 19.0878 77.9102 20.4119 77.6131 21.7958C76.6106 26.4711 76.0982 29.7102 75.6897 34.6922C75.0139 35.1784 73.3504 35.8218 72.5336 36.1883C68.6496 37.9163 68.1001 37.9837 69.2957 32.8296C69.37 32.5004 69.4591 32.1114 69.4814 31.7898C69.4442 31.5504 69.318 31.5579 69.2734 31.5055ZM91.426 34.1686C91.1735 33.6674 92.8147 31.4756 93.6019 32.2984C93.8173 32.5902 93.1489 33.1662 92.7627 33.4504C92.28 33.8095 91.4854 34.3406 91.426 34.1686ZM62.5304 35.6497C62.7457 35.0662 63.9562 33.6898 65.3078 34.0339C65.7237 34.1387 65.7534 34.3182 65.4043 34.6623C65.189 34.8717 64.5503 35.343 63.4661 35.8143C62.6715 36.1584 62.4561 35.9415 62.5304 35.6497ZM30.0479 48.2245C29.4612 47.6635 30.9242 46.0626 31.4217 45.6437C31.9267 45.2173 32.9515 43.9008 35.9889 41.7763C36.3305 41.5369 36.88 41.133 37.4296 40.8038C37.8751 40.542 38.5806 40.0483 38.7737 40.4148C39.858 42.8759 35.5062 47.0725 32.1866 48.0973C31.3846 48.3517 30.2706 48.4938 30.0479 48.2245ZM86.6732 53.7451V53.7975C86.5841 53.805 86.5024 53.82 86.4355 53.8574C86.3761 53.8873 86.3316 53.9396 86.2944 53.9995C86.2647 54.0518 86.2425 54.0967 86.2276 54.1491C86.2128 54.194 86.2053 54.2389 86.1979 54.2763V58.226C86.2128 58.5476 86.3613 58.989 86.5692 59.2209C87.0148 59.7071 88.0248 59.5126 88.5669 59.2658C88.76 59.176 89.213 58.9217 89.3838 58.7721V54.2763C89.3763 54.2164 89.3541 54.1416 89.3318 54.0818C89.3244 54.0593 89.3095 54.0369 89.3021 54.0144C89.2947 53.9995 89.2798 53.9845 89.2724 53.9696C89.2575 53.9471 89.2427 53.9322 89.2278 53.9097C89.2055 53.8873 89.1758 53.8648 89.1536 53.8499C89.0793 53.8125 88.9828 53.805 88.9308 53.7975V53.7451H90.3789V53.7975C90.3418 53.805 90.3046 53.805 90.2675 53.8125C90.2526 53.8125 90.2378 53.82 90.2229 53.82C90.2081 53.8274 90.2007 53.8274 90.1858 53.8349C90.1487 53.8499 90.1115 53.8648 90.0893 53.8948C90.0447 53.9396 90.0002 53.9995 89.9705 54.0593C89.9407 54.1266 89.911 54.2089 89.9036 54.2688V56.3559V59.0638C89.9036 59.0862 89.911 59.1162 89.9185 59.1386C89.9333 59.2059 89.963 59.2733 90.0002 59.3331C90.015 59.363 90.0447 59.4004 90.067 59.4229C90.0893 59.4453 90.1115 59.4603 90.1338 59.4752C90.1561 59.4902 90.1858 59.4977 90.2081 59.5052C90.2526 59.5201 90.3046 59.5276 90.3715 59.5351V59.5874H89.3912V58.9067C89.2575 59.004 89.0422 59.1611 88.9308 59.2433C88.812 59.3256 88.6263 59.4229 88.4926 59.4827C88.2921 59.565 87.8465 59.6997 87.6312 59.7146C87.3787 59.752 87.1039 59.7296 86.9108 59.7146C86.8217 59.7071 86.4875 59.6248 86.3167 59.5126C86.0494 59.3331 85.8266 59.0713 85.7449 58.7721C85.7226 58.6823 85.6929 58.5402 85.6929 58.4055V54.2763C85.6929 54.2314 85.6781 54.194 85.6632 54.1416C85.6484 54.0967 85.6187 54.0444 85.5964 53.9995C85.5667 53.9546 85.5295 53.9097 85.4998 53.8873C85.4776 53.8723 85.4627 53.8574 85.4404 53.8499C85.4107 53.8349 85.381 53.8274 85.3513 53.82C85.3068 53.8125 85.2548 53.805 85.2251 53.805V53.7526H86.6732V53.7451ZM92.4583 53.7451V53.7975C92.488 53.7975 92.5696 53.805 92.6216 53.8274C92.6662 53.8424 92.7256 53.8648 92.7776 53.9172C92.8147 53.9546 92.8667 54.0369 92.8815 54.0892C92.9038 54.1416 92.9113 54.194 92.9113 54.2688V59.0638C92.9113 59.1012 92.9113 59.161 92.889 59.2209C92.8816 59.2359 92.8815 59.2433 92.8741 59.2583C92.8667 59.2807 92.8518 59.2957 92.8444 59.3256C92.8296 59.3555 92.7999 59.393 92.7776 59.4229C92.7627 59.4378 92.7553 59.4453 92.7405 59.4603C92.7182 59.4827 92.6885 59.4977 92.6662 59.5052C92.6439 59.5126 92.6142 59.5201 92.5919 59.5276C92.5399 59.5426 92.488 59.5426 92.4657 59.5426V59.5949H95.1614C95.5179 59.5725 95.8595 59.4977 96.1788 59.3181C98.3399 58.0839 97.8572 54.8672 96.2085 54.0743C95.5847 53.7751 95.3619 53.7526 94.5079 53.7601L92.4583 53.7451ZM93.4534 53.8574H94.6119C95.3768 53.8798 95.6961 54.0818 95.956 54.2763C97.2928 55.2787 97.3522 57.8445 96.1045 58.9292C95.7332 59.2508 95.3322 59.4902 94.7901 59.4902H93.4534V53.8574ZM106.189 53.6329C105.454 53.7077 104.712 54.1042 104.259 54.6952C103.984 55.0542 103.91 55.2936 103.746 55.6976C103.59 56.1838 103.583 56.5653 103.62 57.074C103.642 57.7547 104.118 58.615 104.645 59.0414C105.35 59.6249 106.048 59.7969 106.962 59.7146C107.742 59.6398 108.373 59.2134 108.87 58.6299C109.353 58.0689 109.628 57.0141 109.494 56.296C109.346 55.4432 109.138 54.9046 108.492 54.2987C107.868 53.7377 107.006 53.5581 106.189 53.6329ZM108.863 57.1114C108.781 57.8669 108.566 58.3906 108.061 58.9441C107.623 59.4304 106.769 59.7371 106.13 59.565C103.895 58.9441 103.702 55.7649 105.038 54.4109C106.613 52.825 109.175 54.2239 108.863 57.1114ZM72.9717 58.1512C73.1351 58.4429 73.5955 59.0339 74.1673 59.3331C74.6946 59.6174 75.5115 59.7445 76.0388 59.3705C76.3358 59.161 76.4546 59.0414 76.6106 58.7197C76.7294 58.4654 76.7665 58.0016 76.6774 57.7323C76.4546 57.0889 75.7343 56.9393 75.1773 56.7897C74.6278 56.67 73.9149 56.5877 73.4396 56.281C72.541 55.6676 72.5484 54.2015 73.8332 53.79C74.0337 53.7227 74.1079 53.7003 74.3084 53.6703C74.806 53.5955 75.9942 53.6105 76.3804 53.7451L76.6997 54.9645L76.6551 54.9794C76.5363 54.6952 76.4546 54.5231 76.0982 54.2239C75.6155 53.82 75.1847 53.7601 74.5981 53.7751C74.2713 53.7825 73.9668 53.8573 73.6698 54.0144C73.1277 54.2987 73.1054 55.0393 73.291 55.3759C73.5955 55.922 74.457 56.0491 75.0065 56.1838C75.8828 56.3933 77.0339 56.6027 77.071 57.8968C77.0933 58.9292 76.3804 59.5575 75.4595 59.7146C75.1031 59.752 74.8283 59.7595 74.5164 59.7146C74.056 59.6398 73.603 59.4528 73.1871 59.1611C73.0683 59.0713 72.994 59.0189 72.9197 58.9441V58.1587H72.9717M83.3908 53.7451V54.6578H83.3091C83.3091 54.5979 83.3091 54.5007 83.272 54.3885C83.2497 54.3211 83.22 54.2538 83.1531 54.179C83.064 54.0743 82.9378 53.992 82.7967 53.9396C82.7447 53.9172 82.6556 53.8948 82.5665 53.8798C82.507 53.8648 82.4105 53.8574 82.3585 53.8574H81.4896V59.0638C81.4896 59.1087 81.5045 59.1386 81.5119 59.1611C81.5193 59.191 81.5268 59.2134 81.5342 59.2359C81.5416 59.2508 81.549 59.2658 81.5565 59.2807C81.5862 59.3406 81.6085 59.378 81.6382 59.4079C81.705 59.4827 81.7644 59.5201 81.9649 59.5426V59.5949H80.5168V59.5426C80.6059 59.5351 80.7025 59.5201 80.7767 59.4678C80.8139 59.4453 80.8584 59.3929 80.8955 59.3331C80.9178 59.2882 80.9475 59.2359 80.9624 59.176C80.9698 59.1461 80.9772 59.1087 80.9847 59.0713V53.8648H80.1084C80.0341 53.8648 79.6999 53.8873 79.4548 54.0668C79.2915 54.179 79.1578 54.3586 79.1652 54.6653H79.0835V53.7526H83.3908V53.7451ZM100.939 59.0638C100.939 59.0638 100.939 59.0863 100.946 59.1162C100.946 59.1311 100.954 59.1461 100.954 59.1611C100.954 59.1685 100.961 59.1835 100.961 59.191C100.969 59.2134 100.976 59.2433 100.984 59.2733C100.998 59.3032 101.006 59.3181 101.013 59.3256C101.013 59.3331 101.028 59.3481 101.043 59.3705C101.05 59.3855 101.065 59.4004 101.08 59.4154C101.11 59.4453 101.132 59.4603 101.162 59.4827C101.244 59.5276 101.377 59.5351 101.399 59.5351V59.5874H99.9514V59.5351C99.9736 59.5351 99.9959 59.5351 100.018 59.5276C100.085 59.5201 100.152 59.5052 100.204 59.4678C100.219 59.4603 100.234 59.4453 100.248 59.4378C100.263 59.4229 100.278 59.4154 100.286 59.3929C100.3 59.378 100.308 59.363 100.323 59.3406C100.345 59.3107 100.36 59.2733 100.375 59.2359C100.39 59.1985 100.397 59.1685 100.397 59.1461C100.404 59.1087 100.404 59.0563 100.404 59.0563V59.0414V56.6551V54.2688C100.397 54.0967 100.33 54.007 100.3 53.9546C100.248 53.8798 100.189 53.8424 100.122 53.82C100.055 53.7975 99.9885 53.7975 99.9588 53.79V53.7377H101.407V53.79C101.34 53.7975 101.288 53.805 101.251 53.8125C101.229 53.82 101.214 53.8199 101.199 53.8274C101.192 53.8274 101.184 53.8349 101.177 53.8424C101.169 53.8424 101.162 53.8499 101.162 53.8499C101.132 53.8648 101.095 53.9022 101.073 53.9322C101.006 54.0219 100.969 54.0893 100.954 54.2538V59.0638" fill="url(#paint0_linear_5_44)"/>
<defs>
<linearGradient id="paint0_linear_5_44" x1="2.12185e-07" y1="30.1887" x2="110" y2="30.1887" gradientUnits="userSpaceOnUse">
<stop stop-color="#A37C3D"/>
<stop offset="1" stop-color="#F0DAA9"/>
</linearGradient>
</defs>
</svg>
